<svg xmlns="http://www.w3.org/2000/svg" xmlns:xlink="http://www.w3.org/1999/xlink" width="500" zoomAndPan="magnify" viewBox="0 0 375 374.999991" height="500" preserveAspectRatio="xMidYMid meet" version="1.0"><defs><g/><clipPath id="b19f11b05f"><path d="M 74.210938 236.097656 L 302.535156 236.097656 L 302.535156 239.558594 L 74.210938 239.558594 Z M 74.210938 236.097656 " clip-rule="nonzero"/></clipPath><clipPath id="b3a28f1654"><path d="M 74.210938 198.621094 L 302.535156 198.621094 L 302.535156 202.082031 L 74.210938 202.082031 Z M 74.210938 198.621094 " clip-rule="nonzero"/></clipPath></defs><g fill="#3d3d3d" fill-opacity="1"><g transform="translate(30.071934, 176.810458)"><g><path d="M 2.4375 -5.203125 L 17.71875 -46.78125 L 3.40625 -46.78125 L 3.40625 -51.984375 L 25.40625 -51.984375 L 25.40625 -48.828125 L 9.3125 -5.203125 L 25.40625 -5.203125 L 25.40625 0 L 2.4375 0 Z M 2.4375 -5.203125 "/></g></g></g><g fill="#3d3d3d" fill-opacity="1"><g transform="translate(56.827456, 176.810458)"><g><path d="M 17.328125 0.578125 C 12.234375 0.578125 8.582031 -0.863281 6.375 -3.75 C 4.175781 -6.632812 3.078125 -10.816406 3.078125 -16.296875 L 3.078125 -36 C 3.078125 -41.394531 4.1875 -45.476562 6.40625 -48.25 C 8.632812 -51.03125 12.273438 -52.421875 17.328125 -52.421875 C 22.378906 -52.421875 26.003906 -51.019531 28.203125 -48.21875 C 30.410156 -45.414062 31.515625 -41.34375 31.515625 -36 L 31.515625 -16.234375 C 31.515625 -10.847656 30.398438 -6.695312 28.171875 -3.78125 C 25.941406 -0.875 22.328125 0.578125 17.328125 0.578125 Z M 17.328125 -5.140625 C 20.023438 -5.140625 21.84375 -5.925781 22.78125 -7.5 C 23.71875 -9.082031 24.1875 -11.484375 24.1875 -14.703125 L 24.1875 -37.46875 C 24.1875 -40.632812 23.71875 -42.976562 22.78125 -44.5 C 21.84375 -46.019531 20.023438 -46.78125 17.328125 -46.78125 C 14.585938 -46.78125 12.742188 -46.019531 11.796875 -44.5 C 10.859375 -42.976562 10.390625 -40.632812 10.390625 -37.46875 L 10.390625 -14.703125 C 10.390625 -11.484375 10.859375 -9.082031 11.796875 -7.5 C 12.742188 -5.925781 14.585938 -5.140625 17.328125 -5.140625 Z M 17.328125 -5.140625 "/></g></g></g><g fill="#3d3d3d" fill-opacity="1"><g transform="translate(91.410749, 176.810458)"><g><path d="M 4.046875 -51.984375 L 14.5 -51.984375 C 19.757812 -51.984375 23.617188 -50.898438 26.078125 -48.734375 C 28.546875 -46.578125 29.78125 -43.0625 29.78125 -38.1875 C 29.78125 -31.507812 27.640625 -27.460938 23.359375 -26.046875 L 30.734375 0 L 23.75 0 L 16.9375 -24.390625 L 11.296875 -24.390625 L 11.296875 0 L 4.046875 0 Z M 14.046875 -29.578125 C 17.171875 -29.578125 19.40625 -30.195312 20.75 -31.4375 C 22.101562 -32.6875 22.78125 -34.9375 22.78125 -38.1875 C 22.78125 -40.320312 22.546875 -42 22.078125 -43.21875 C 21.609375 -44.4375 20.773438 -45.332031 19.578125 -45.90625 C 18.378906 -46.488281 16.6875 -46.78125 14.5 -46.78125 L 11.296875 -46.78125 L 11.296875 -29.578125 Z M 14.046875 -29.578125 "/></g></g></g><g fill="#3d3d3d" fill-opacity="1"><g transform="translate(124.710793, 176.810458)"><g><path d="M 12.25 -51.984375 L 19.25 -51.984375 L 30.359375 0 L 23.484375 0 L 21.109375 -13.09375 L 10.53125 -13.09375 L 8.015625 0 L 1.21875 0 Z M 20.15625 -18.28125 L 15.78125 -41.71875 L 11.484375 -18.28125 Z M 20.15625 -18.28125 "/></g></g></g><g fill="#3d3d3d" fill-opacity="1"><g transform="translate(156.278475, 176.810458)"><g><path d="M 1.28125 -51.984375 L 7.515625 -51.984375 L 5 -36.0625 L 1.28125 -36.0625 Z M 1.28125 -51.984375 "/></g></g></g><g fill="#3d3d3d" fill-opacity="1"><g transform="translate(164.42705, 176.810458)"><g><path d="M 16.296875 0.578125 C 11.929688 0.578125 8.601562 -0.769531 6.3125 -3.46875 C 4.03125 -6.164062 2.757812 -9.863281 2.5 -14.5625 L 8.921875 -16.296875 C 9.128906 -12.960938 9.78125 -10.269531 10.875 -8.21875 C 11.96875 -6.164062 13.773438 -5.140625 16.296875 -5.140625 C 18.179688 -5.140625 19.601562 -5.660156 20.5625 -6.703125 C 21.53125 -7.753906 22.015625 -9.265625 22.015625 -11.234375 C 22.015625 -13.367188 21.5625 -15.140625 20.65625 -16.546875 C 19.757812 -17.960938 18.328125 -19.523438 16.359375 -21.234375 L 7.640625 -28.9375 C 5.878906 -30.476562 4.601562 -32.132812 3.8125 -33.90625 C 3.019531 -35.6875 2.625 -37.859375 2.625 -40.421875 C 2.625 -44.234375 3.710938 -47.1875 5.890625 -49.28125 C 8.078125 -51.375 11.054688 -52.421875 14.828125 -52.421875 C 18.929688 -52.421875 22.03125 -51.332031 24.125 -49.15625 C 26.21875 -46.976562 27.484375 -43.597656 27.921875 -39.015625 L 21.75 -37.34375 C 21.539062 -40.382812 20.953125 -42.726562 19.984375 -44.375 C 19.023438 -46.019531 17.304688 -46.84375 14.828125 -46.84375 C 12.984375 -46.84375 11.566406 -46.359375 10.578125 -45.390625 C 9.597656 -44.429688 9.109375 -43.015625 9.109375 -41.140625 C 9.109375 -39.597656 9.363281 -38.300781 9.875 -37.25 C 10.394531 -36.195312 11.273438 -35.140625 12.515625 -34.078125 L 21.3125 -26.375 C 23.570312 -24.363281 25.375 -22.179688 26.71875 -19.828125 C 28.070312 -17.472656 28.75 -14.800781 28.75 -11.8125 C 28.75 -8 27.59375 -4.976562 25.28125 -2.75 C 22.96875 -0.53125 19.972656 0.578125 16.296875 0.578125 Z M 16.296875 0.578125 "/></g></g></g><g fill="#3d3d3d" fill-opacity="1"><g transform="translate(194.775653, 176.810458)"><g/></g></g><g fill="#3d3d3d" fill-opacity="1"><g transform="translate(209.468732, 176.810458)"><g><path d="M 9.75 -46.59375 L 0.96875 -46.59375 L 0.96875 -51.984375 L 25.546875 -51.984375 L 25.546875 -46.59375 L 17 -46.59375 L 17 0 L 9.75 0 Z M 9.75 -46.59375 "/></g></g></g><g fill="#3d3d3d" fill-opacity="1"><g transform="translate(235.967621, 176.810458)"><g><path d="M 4.046875 -51.984375 L 14.5 -51.984375 C 19.757812 -51.984375 23.617188 -50.898438 26.078125 -48.734375 C 28.546875 -46.578125 29.78125 -43.0625 29.78125 -38.1875 C 29.78125 -31.507812 27.640625 -27.460938 23.359375 -26.046875 L 30.734375 0 L 23.75 0 L 16.9375 -24.390625 L 11.296875 -24.390625 L 11.296875 0 L 4.046875 0 Z M 14.046875 -29.578125 C 17.171875 -29.578125 19.40625 -30.195312 20.75 -31.4375 C 22.101562 -32.6875 22.78125 -34.9375 22.78125 -38.1875 C 22.78125 -40.320312 22.546875 -42 22.078125 -43.21875 C 21.609375 -44.4375 20.773438 -45.332031 19.578125 -45.90625 C 18.378906 -46.488281 16.6875 -46.78125 14.5 -46.78125 L 11.296875 -46.78125 L 11.296875 -29.578125 Z M 14.046875 -29.578125 "/></g></g></g><g fill="#3d3d3d" fill-opacity="1"><g transform="translate(269.267665, 176.810458)"><g><path d="M 4.421875 -51.984375 L 11.546875 -51.984375 L 11.546875 0 L 4.421875 0 Z M 4.421875 -51.984375 "/></g></g></g><g fill="#3d3d3d" fill-opacity="1"><g transform="translate(285.179822, 176.810458)"><g><path d="M 4.046875 -51.984375 L 15.984375 -51.984375 C 20.679688 -51.984375 24.164062 -50.921875 26.4375 -48.796875 C 28.707031 -46.679688 29.84375 -43.398438 29.84375 -38.953125 C 29.84375 -32.316406 27.359375 -28.660156 22.390625 -27.984375 C 25.472656 -27.253906 27.71875 -25.804688 29.125 -23.640625 C 30.539062 -21.484375 31.25 -18.546875 31.25 -14.828125 C 31.25 -10.160156 30.144531 -6.519531 27.9375 -3.90625 C 25.738281 -1.300781 22.394531 0 17.90625 0 L 4.046875 0 Z M 15.59375 -30.296875 C 18.582031 -30.296875 20.65625 -30.945312 21.8125 -32.25 C 22.96875 -33.550781 23.546875 -35.785156 23.546875 -38.953125 C 23.546875 -41.265625 23.191406 -42.960938 22.484375 -44.046875 C 21.785156 -45.140625 20.726562 -45.835938 19.3125 -46.140625 C 17.90625 -46.441406 15.8125 -46.59375 13.03125 -46.59375 L 11.296875 -46.59375 L 11.296875 -30.296875 Z M 16.171875 -5.203125 C 18.304688 -5.203125 19.960938 -5.53125 21.140625 -6.1875 C 22.316406 -6.851562 23.140625 -7.867188 23.609375 -9.234375 C 24.085938 -10.609375 24.328125 -12.472656 24.328125 -14.828125 C 24.328125 -18.160156 23.640625 -20.648438 22.265625 -22.296875 C 20.898438 -23.941406 18.675781 -24.765625 15.59375 -24.765625 L 11.296875 -24.765625 L 11.296875 -5.203125 Z M 16.171875 -5.203125 "/></g></g></g><g fill="#3d3d3d" fill-opacity="1"><g transform="translate(318.800686, 176.810458)"><g><path d="M 4.046875 -51.984375 L 24.1875 -51.984375 L 24.1875 -46.59375 L 11.296875 -46.59375 L 11.296875 -29.390625 L 21.75 -29.390625 L 21.75 -24.25 L 11.296875 -24.25 L 11.296875 -5.203125 L 24.328125 -5.203125 L 24.328125 0 L 4.046875 0 Z M 4.046875 -51.984375 "/></g></g></g><g fill="#3d3d3d" fill-opacity="1"><g transform="translate(109.597419, 223.179025)"><g><path d="M 9.59375 0 L 7.484375 0 L 6.3125 -4.578125 C 6.257812 -4.742188 6.179688 -5.082031 6.078125 -5.59375 C 5.972656 -6.101562 5.914062 -6.445312 5.90625 -6.625 C 5.875 -6.40625 5.8125 -6.054688 5.71875 -5.578125 C 5.625 -5.109375 5.550781 -4.769531 5.5 -4.5625 L 4.328125 0 L 2.21875 0 L 0 -8.71875 L 1.8125 -8.71875 L 2.9375 -3.96875 C 3.132812 -3.082031 3.273438 -2.316406 3.359375 -1.671875 C 3.378906 -1.898438 3.429688 -2.25 3.515625 -2.71875 C 3.609375 -3.195312 3.691406 -3.570312 3.765625 -3.84375 L 5.03125 -8.71875 L 6.78125 -8.71875 L 8.046875 -3.84375 C 8.109375 -3.625 8.179688 -3.285156 8.265625 -2.828125 C 8.347656 -2.378906 8.410156 -1.992188 8.453125 -1.671875 C 8.492188 -1.984375 8.554688 -2.367188 8.640625 -2.828125 C 8.734375 -3.296875 8.816406 -3.675781 8.890625 -3.96875 L 10 -8.71875 L 11.8125 -8.71875 Z M 9.59375 0 "/></g></g></g><g fill="#3d3d3d" fill-opacity="1"><g transform="translate(126.297501, 223.179025)"><g><path d="M 6.125 0 L 1.09375 0 L 1.09375 -8.71875 L 6.125 -8.71875 L 6.125 -7.203125 L 2.953125 -7.203125 L 2.953125 -5.296875 L 5.90625 -5.296875 L 5.90625 -3.78125 L 2.953125 -3.78125 L 2.953125 -1.53125 L 6.125 -1.53125 Z M 6.125 0 "/></g></g></g><g fill="#3d3d3d" fill-opacity="1"><g transform="translate(138.028802, 223.179025)"><g><path d="M 1.09375 0 L 1.09375 -8.71875 L 2.953125 -8.71875 L 2.953125 -1.53125 L 6.484375 -1.53125 L 6.484375 0 Z M 1.09375 0 "/></g></g></g><g fill="#3d3d3d" fill-opacity="1"><g transform="translate(149.819753, 223.179025)"><g><path d="M 4.796875 -7.3125 C 4.109375 -7.3125 3.570312 -7.046875 3.1875 -6.515625 C 2.800781 -5.992188 2.609375 -5.269531 2.609375 -4.34375 C 2.609375 -2.394531 3.335938 -1.421875 4.796875 -1.421875 C 5.410156 -1.421875 6.15625 -1.570312 7.03125 -1.875 L 7.03125 -0.328125 C 6.3125 -0.0234375 5.507812 0.125 4.625 0.125 C 3.351562 0.125 2.378906 -0.257812 1.703125 -1.03125 C 1.035156 -1.800781 0.703125 -2.90625 0.703125 -4.34375 C 0.703125 -5.25 0.867188 -6.039062 1.203125 -6.71875 C 1.535156 -7.40625 2.007812 -7.929688 2.625 -8.296875 C 3.25 -8.660156 3.972656 -8.84375 4.796875 -8.84375 C 5.648438 -8.84375 6.503906 -8.640625 7.359375 -8.234375 L 6.765625 -6.734375 C 6.429688 -6.890625 6.097656 -7.023438 5.765625 -7.140625 C 5.441406 -7.253906 5.117188 -7.3125 4.796875 -7.3125 Z M 4.796875 -7.3125 "/></g></g></g><g fill="#3d3d3d" fill-opacity="1"><g transform="translate(162.493513, 223.179025)"><g><path d="M 9.015625 -4.375 C 9.015625 -2.925781 8.65625 -1.8125 7.9375 -1.03125 C 7.21875 -0.257812 6.191406 0.125 4.859375 0.125 C 3.523438 0.125 2.5 -0.257812 1.78125 -1.03125 C 1.0625 -1.8125 0.703125 -2.929688 0.703125 -4.390625 C 0.703125 -5.835938 1.0625 -6.941406 1.78125 -7.703125 C 2.5 -8.472656 3.53125 -8.859375 4.875 -8.859375 C 6.21875 -8.859375 7.242188 -8.472656 7.953125 -7.703125 C 8.660156 -6.929688 9.015625 -5.820312 9.015625 -4.375 Z M 2.65625 -4.375 C 2.65625 -3.394531 2.835938 -2.660156 3.203125 -2.171875 C 3.578125 -1.679688 4.128906 -1.4375 4.859375 -1.4375 C 6.335938 -1.4375 7.078125 -2.414062 7.078125 -4.375 C 7.078125 -6.34375 6.34375 -7.328125 4.875 -7.328125 C 4.132812 -7.328125 3.578125 -7.078125 3.203125 -6.578125 C 2.835938 -6.078125 2.65625 -5.34375 2.65625 -4.375 Z M 2.65625 -4.375 "/></g></g></g><g fill="#3d3d3d" fill-opacity="1"><g transform="translate(177.105872, 223.179025)"><g><path d="M 4.796875 0 L 2.6875 -6.84375 L 2.640625 -6.84375 C 2.710938 -5.445312 2.75 -4.519531 2.75 -4.0625 L 2.75 0 L 1.09375 0 L 1.09375 -8.71875 L 3.609375 -8.71875 L 5.6875 -2.046875 L 5.71875 -2.046875 L 7.90625 -8.71875 L 10.421875 -8.71875 L 10.421875 0 L 8.703125 0 L 8.703125 -4.125 C 8.703125 -4.320312 8.703125 -4.546875 8.703125 -4.796875 C 8.710938 -5.054688 8.738281 -5.734375 8.78125 -6.828125 L 8.734375 -6.828125 L 6.484375 0 Z M 4.796875 0 "/></g></g></g><g fill="#3d3d3d" fill-opacity="1"><g transform="translate(193.513672, 223.179025)"><g><path d="M 6.125 0 L 1.09375 0 L 1.09375 -8.71875 L 6.125 -8.71875 L 6.125 -7.203125 L 2.953125 -7.203125 L 2.953125 -5.296875 L 5.90625 -5.296875 L 5.90625 -3.78125 L 2.953125 -3.78125 L 2.953125 -1.53125 L 6.125 -1.53125 Z M 6.125 0 "/></g></g></g><g fill="#3d3d3d" fill-opacity="1"><g transform="translate(205.244973, 223.179025)"><g/></g></g><g fill="#3d3d3d" fill-opacity="1"><g transform="translate(213.307849, 223.179025)"><g><path d="M 8.25 0 L 6.40625 0 L 6.40625 -3.765625 L 2.953125 -3.765625 L 2.953125 0 L 1.09375 0 L 1.09375 -8.71875 L 2.953125 -8.71875 L 2.953125 -5.296875 L 6.40625 -5.296875 L 6.40625 -8.71875 L 8.25 -8.71875 Z M 8.25 0 "/></g></g></g><g fill="#3d3d3d" fill-opacity="1"><g transform="translate(227.544418, 223.179025)"><g><path d="M 9.015625 -4.375 C 9.015625 -2.925781 8.65625 -1.8125 7.9375 -1.03125 C 7.21875 -0.257812 6.191406 0.125 4.859375 0.125 C 3.523438 0.125 2.5 -0.257812 1.78125 -1.03125 C 1.0625 -1.8125 0.703125 -2.929688 0.703125 -4.390625 C 0.703125 -5.835938 1.0625 -6.941406 1.78125 -7.703125 C 2.5 -8.472656 3.53125 -8.859375 4.875 -8.859375 C 6.21875 -8.859375 7.242188 -8.472656 7.953125 -7.703125 C 8.660156 -6.929688 9.015625 -5.820312 9.015625 -4.375 Z M 2.65625 -4.375 C 2.65625 -3.394531 2.835938 -2.660156 3.203125 -2.171875 C 3.578125 -1.679688 4.128906 -1.4375 4.859375 -1.4375 C 6.335938 -1.4375 7.078125 -2.414062 7.078125 -4.375 C 7.078125 -6.34375 6.34375 -7.328125 4.875 -7.328125 C 4.132812 -7.328125 3.578125 -7.078125 3.203125 -6.578125 C 2.835938 -6.078125 2.65625 -5.34375 2.65625 -4.375 Z M 2.65625 -4.375 "/></g></g></g><g fill="#3d3d3d" fill-opacity="1"><g transform="translate(242.156776, 223.179025)"><g><path d="M 4.796875 0 L 2.6875 -6.84375 L 2.640625 -6.84375 C 2.710938 -5.445312 2.75 -4.519531 2.75 -4.0625 L 2.75 0 L 1.09375 0 L 1.09375 -8.71875 L 3.609375 -8.71875 L 5.6875 -2.046875 L 5.71875 -2.046875 L 7.90625 -8.71875 L 10.421875 -8.71875 L 10.421875 0 L 8.703125 0 L 8.703125 -4.125 C 8.703125 -4.320312 8.703125 -4.546875 8.703125 -4.796875 C 8.710938 -5.054688 8.738281 -5.734375 8.78125 -6.828125 L 8.734375 -6.828125 L 6.484375 0 Z M 4.796875 0 "/></g></g></g><g fill="#3d3d3d" fill-opacity="1"><g transform="translate(258.564585, 223.179025)"><g><path d="M 6.125 0 L 1.09375 0 L 1.09375 -8.71875 L 6.125 -8.71875 L 6.125 -7.203125 L 2.953125 -7.203125 L 2.953125 -5.296875 L 5.90625 -5.296875 L 5.90625 -3.78125 L 2.953125 -3.78125 L 2.953125 -1.53125 L 6.125 -1.53125 Z M 6.125 0 "/></g></g></g><g clip-path="url(#b19f11b05f)"><path fill="#a8a8a8" d="M 74.210938 123.667969 L 302.535156 123.667969 L 302.535156 351.988281 L 74.210938 351.988281 Z M 74.210938 123.667969 " fill-opacity="1" fill-rule="nonzero"/></g><g clip-path="url(#b3a28f1654)"><path fill="#a8a8a8" d="M 74.210938 86.1875 L 302.535156 86.1875 L 302.535156 314.511719 L 74.210938 314.511719 Z M 74.210938 86.1875 " fill-opacity="1" fill-rule="nonzero"/></g></svg>